<svg xmlns="http://www.w3.org/2000/svg" x="0" y="0" viewBox="0 0 94.99 125"><path d="m63.67,17.2c4.61-6,6.05-10.84,3.75-12.64-.59-.46-1.32-.63-2.16-.53-2.44.3-5.66,2.91-9.07,7.34-3.27,4.25-4.98,9.97-5.73,13.11-1.65.2-3.37,1.31-4.92,3.12,0-1.57-.58-3.78-1.43-5.85-1.26-3.06-2.96-5.47-4.22-5.98-.35-.14-.66-.15-.94-.03-1.5.63-.84,4.46.59,7.92,1.26,3.06,2.96,5.47,4.22,5.98.09.04.18.04.27.06-1.71,2.76-3.01,6.44-3.41,10.64-1.03-1.89-2.16-3.33-3.31-4.14-.65-.45-1.3-.7-1.93-.74.75-1.81,2.9-7.71,1.91-13.6-.66-3.94-1.89-6.54-3.67-7.73-1.07-.71-2.33-.92-3.75-.61-3.72.8-3.83,4.82-2.78,11.05.97,5.8,5.34,9.87,6.9,11.16-3.2,1.52-4.49,9.19-2.94,18.26.62,3.66,2.14,6.88,3.77,9.47-3.35.65-5.07,1.53-5.07,2.61,0,0,0,0,0,0h0l.35,26.37h0c.01,2.33,8.35,3.55,16.59,3.55s16.59-1.22,16.59-3.55h-.39.39s-.35-26.38-.35-26.38h0c0-1.57-3.63-2.44-6.85-2.91,1.66-4.05,3.34-9.38,4.1-15.64,1.03-8.41-.71-16.5-4.43-20.63-.59-.66-1.21-1.18-1.86-1.57,3.07-1.77,7.05-4.53,9.81-8.11Zm-23.03,7.11c.07.03.15.05.23.05.41,0,.73-.37.73-.84s-.32-.84-.73-.84c-.33,0-.59.24-.69.58-1.53-3.77-1.6-6.56-.96-6.82.03-.01.07-.02.11-.02.07,0,.15.02.24.06.9.37,2.5,2.39,3.8,5.56.47,1.15.81,2.21,1.03,3.13-.13-.16-.32-.26-.53-.26-.41,0-.73.37-.73.84s.32.84.73.84c.35,0,.62-.27.7-.64.32,1.73.2,2.86-.2,3.02-.08.04-.2.02-.35-.04-.81-.33-2.17-2-3.39-4.63Zm-12.82.14c-1.14-6.83-.55-9.59,2.19-10.18.37-.08.72-.12,1.06-.12.78,0,1.48.21,2.09.62,1.59,1.06,2.71,3.49,3.34,7.22.95,5.69-1.22,11.61-1.9,13.27-1.35-1.11-5.83-5.16-6.77-10.81Zm7,11.79c.63-.11,1.31.09,2.01.58,2.8,1.95,5.49,7.98,6.69,15.01,1.27,7.45-1.7,14.53-2.81,16.85-.3-.02-.59-.04-.88-.07-2.08-2.11-6.82-7.58-8.05-14.74-1.54-9-.14-17.08,3.04-17.63Zm9.26,24.57c.53,3.42,1.86,6.27,2.88,8.05-.22,0-.43,0-.66,0-1.71,0-3.3-.05-4.77-.14.69-1.48,1.87-4.37,2.55-7.92Zm6.47-13.72c-.59,0-1.7-2.57-1.7-7.49s1.11-7.49,1.7-7.49,1.7,2.57,1.7,7.49-1.11,7.49-1.7,7.49Zm-.23.76c3.43,0,5.72,1.71,5.72,10.05,0,1.79-.31,3.5-.76,5.07-.97,2.36-1.94,4.27-2.7,5.65-1.44.12-3.02.2-4.74.23-1.26-2.11-3.24-6.18-3.24-10.95,0-8.34,2.29-10.05,5.72-10.05Zm-15.09,16.3c1.23,1.85,2.47,3.32,3.42,4.34-5.18-.55-8.17-1.59-8.17-2.42h0c0-.4,1.01-1.24,4.75-1.93Zm11.42,31.09c-9.8,0-15.82-1.63-15.82-2.79h-.39.39s-.33-25.21-.33-25.21c1.5,1.04,4.99,1.75,9.14,2.11,0,0,0,0,0,0,.42.04.85.07,1.28.1,0,0,0,0,.01,0,0,0,0,0,0,0,1.73.12,3.54.18,5.36.18.44,0,.88,0,1.31-.01,0,0,0,0,0,0s0,0,0,0c6.32-.1,12.42-.92,14.5-2.4l.33,25.23c0,1.17-6.02,2.79-15.82,2.79Zm15.47-29.16c0,.83-3.06,1.89-8.34,2.43.72-1.29,1.46-2.85,2.03-4.62,4.98.71,6.31,1.73,6.31,2.18Zm-6.99-38.69c3.58,3.97,5.25,11.83,4.24,20.03-.53,4.35-1.51,8.25-2.61,11.57.02-.36.05-.72.05-1.09,0-6.93-1.54-10.15-5.23-10.71.95-1.33,1.44-4.47,1.44-7.59,0-4.1-.85-8.25-2.48-8.25s-2.47,4.15-2.47,8.25c0,3.07.48,6.17,1.4,7.53-2.73.26-4.36,1.85-5.12,5.12-.03-.18-.04-.36-.07-.54-.64-3.77-1.72-7.26-3.02-10.04.26-5.04,1.82-9.38,3.86-12.34.02-.02.03-.05.05-.07,1.77-2.54,3.88-4.05,5.82-4.05,1.42,0,2.85.76,4.14,2.19Zm-2.08-2.5c-.59-.26-1.2-.41-1.81-.44.76-3.13,2.43-8.57,5.55-12.62,3.23-4.2,6.35-6.77,8.55-7.05.64-.08,1.17.05,1.58.37,1.56,1.22.97,5.28-3.88,11.59-2.8,3.64-6.94,6.43-9.99,8.15Zm-23.74-5.34c-.41,0-.73-.37-.73-.84s.32-.84.73-.84.73.37.73.84-.32.84-.73.84Zm4.17.89c0-.47.32-.84.73-.84s.73.37.73.84-.32.84-.73.84-.73-.37-.73-.84Zm7.59-1.27c0,.47-.32.84-.73.84s-.73-.37-.73-.84.32-.84.73-.84.73.37.73.84Zm-10.34,3.08c0,.47-.32.84-.73.84s-.73-.37-.73-.84.32-.84.73-.84.73.37.73.84Zm2.79,2.56c-.41,0-.73-.37-.73-.84s.32-.84.73-.84.73.37.73.84-.32.84-.73.84Zm1.42,2.7c0,.47-.32.84-.73.84s-.73-.37-.73-.84.32-.84.73-.84.73.37.73.84Zm-.73,5.04c-.41,0-.73-.37-.73-.84s.32-.84.73-.84.73.37.73.84-.32.84-.73.84Zm-3.48-6.35c0,.47-.32.84-.73.84s-.73-.37-.73-.84.32-.84.73-.84.73.37.73.84Zm2.75,14.69c0-.47.32-.84.73-.84s.73.37.73.84-.32.84-.73.84-.73-.37-.73-.84Zm2.85,3.53c0,.47-.32.84-.73.84s-.73-.37-.73-.84.32-.84.73-.84.73.37.73.84Zm3.52,1.73c0,.47-.32.84-.73.84s-.73-.37-.73-.84.32-.84.73-.84.73.37.73.84Zm-2.87-5.72c0-.47.32-.84.73-.84s.73.37.73.84-.32.84-.73.84-.73-.37-.73-.84Zm-4.11,7.03c0,.47-.32.84-.73.84s-.73-.37-.73-.84.32-.84.73-.84.73.37.73.84Zm2.77.91c0,.47-.32.84-.73.84s-.73-.37-.73-.84.32-.84.73-.84.73.37.73.84Zm3.52,15.95c0,.47-.32.84-.73.84s-.73-.37-.73-.84.32-.83.73-.83.73.37.73.83Zm-4.56-9.23c0,.47-.32.84-.73.84s-.73-.37-.73-.84.32-.83.73-.83.73.37.73.83Zm1.68-1.27c0-.47.32-.84.73-.84s.73.37.73.84-.32.84-.73.84-.73-.37-.73-.84Zm3.52,1.73c0-.47.32-.84.73-.84s.73.37.73.84-.32.83-.73.83-.73-.37-.73-.83Zm1.07,5.02c.41,0,.73.37.73.83s-.32.84-.73.84-.73-.37-.73-.84.32-.83.73-.83Zm-1.37-9.86c0,.47-.32.84-.73.84s-.73-.37-.73-.84.32-.84.73-.84.73.37.73.84Zm6.14-15.81c0,.47-.32.84-.73.84s-.73-.37-.73-.84.32-.84.73-.84.73.37.73.84Zm1.41,9.39c0,.47-.32.84-.73.84s-.73-.37-.73-.84.32-.84.73-.84.73.37.73.84Zm-1.76-4.84c0,.47-.32.84-.73.84s-.73-.37-.73-.84.32-.84.73-.84.73.37.73.84Zm10.47-.92c0-.47.32-.84.73-.84s.73.37.73.84-.32.84-.73.84-.73-.37-.73-.84Zm-5.44-2.34c-.41,0-.73-.37-.73-.84s.32-.84.73-.84.73.37.73.84-.32.84-.73.84Zm2.99,5.16c0-.47.32-.84.73-.84s.73.37.73.84-.32.84-.73.84-.73-.37-.73-.84Zm3.53.9c.41,0,.73.37.73.84s-.32.84-.73.84-.73-.37-.73-.84.32-.84.73-.84Zm.78,6.21c.41,0,.73.37.73.84s-.32.84-.73.84-.73-.37-.73-.84.32-.84.73-.84Zm-6.75-21.77c.41,0,.73.37.73.84s-.32.84-.73.84-.73-.37-.73-.84.32-.84.73-.84Zm2.79,2.56c0-.47.32-.84.73-.84s.73.37.73.84-.32.84-.73.84-.73-.37-.73-.84Zm-4.81,1.31c0,.47-.32.84-.73.84s-.73-.37-.73-.84.32-.84.73-.84.73.37.73.84Zm4.46,3.24c0-.47.32-.84.73-.84s.73.37.73.84-.32.84-.73.84-.73-.37-.73-.84Zm-1.71,7.1c0,.47-.32.84-.73.84s-.73-.37-.73-.84.32-.84.73-.84.73.37.73.84Zm-13.86,18.26c0,.47-.32.84-.73.84s-.73-.37-.73-.84.32-.83.73-.83.73.37.73.83Zm8.91-3.98c.41,0,.73.37.73.83s-.32.84-.73.84-.73-.37-.73-.84.32-.83.73-.83Zm3.84-4.92c0-.47.32-.84.73-.84s.73.37.73.84-.32.84-.73.84-.73-.37-.73-.84Zm2.23,6.21c0-.47.32-.84.73-.84s.73.37.73.84-.32.83-.73.83-.73-.37-.73-.83Zm-3.31-1.82c0-.47.32-.84.73-.84s.73.37.73.84-.32.83-.73.83-.73-.37-.73-.83Zm-2.01,9.23c0-.47.32-.84.73-.84s.73.37.73.84-.32.83-.73.83-.73-.37-.73-.83Zm.45-4.72c0-.47.32-.83.73-.83s.73.37.73.83-.32.84-.73.84-.73-.37-.73-.84Zm4.53,2.25c0-.47.32-.83.73-.83s.73.37.73.83-.32.84-.73.84-.73-.37-.73-.84Zm-1.36,5.13c0,.47-.32.83-.73.83s-.73-.37-.73-.83.32-.84.73-.84.73.37.73.84Zm-18.48-37.25c0,.47-.32.84-.73.84s-.73-.37-.73-.84.32-.84.73-.84.73.37.73.84Zm.35-13.09c0,.47-.32.84-.73.84s-.73-.37-.73-.84.32-.84.73-.84.73.37.73.84Zm28.23-6.91c-.32-.25-.35-.73-.07-1.1.15-.2.37-.32.59-.35.19-.03.37.02.51.13.32.25.35.73.07,1.1-.15.2-.36.32-.59.35-.03,0-.06,0-.1,0-.15,0-.3-.05-.42-.14Zm3.25,4.53s.06,0,.09,0c.22-.03.44-.16.59-.35h0c.28-.37.25-.85-.07-1.1-.14-.11-.33-.16-.51-.13-.22.03-.44.16-.59.35-.28.37-.25.85.07,1.1.12.09.26.14.42.14Zm.37-.59h0s0,0,0,0h0Zm-4.8-.58s.06,0,.09,0c.22-.03.44-.16.59-.35h0c.28-.37.25-.85-.07-1.1-.14-.11-.32-.16-.51-.13-.22.03-.44.16-.59.35-.28.37-.25.85.07,1.1.12.09.26.14.42.14Zm.37-.59s0,0,0,0h0s0,0,0,0Zm-5.04,9.07c.32.25.35.73.07,1.1-.15.2-.36.32-.59.35-.03,0-.06,0-.09,0-.15,0-.3-.05-.42-.14-.32-.25-.35-.73-.07-1.1.15-.2.36-.32.59-.35.19-.02.37.02.51.13Zm6.51-6.54c-.22.03-.44.16-.58.35-.28.37-.25.85.07,1.1.12.09.26.14.42.14.03,0,.06,0,.09,0,.22-.03.44-.16.59-.35h0c.28-.37.25-.85-.07-1.1-.14-.11-.33-.15-.51-.13Zm.27,1.01h0s0,0,0,0h0Zm-1.35,2.35c.32.25.35.73.07,1.1-.15.2-.36.32-.59.35-.03,0-.06,0-.09,0-.15,0-.3-.05-.42-.14-.32-.25-.35-.73-.07-1.1.15-.2.36-.32.59-.35.19-.02.37.02.51.13Zm-2.54-3.63c.32.25.35.73.07,1.1-.15.2-.36.32-.59.35-.03,0-.06,0-.1,0-.15,0-.3-.05-.42-.14-.32-.25-.35-.73-.07-1.1.15-.2.36-.32.59-.35.19-.02.37.02.51.13Zm-2.51,3.28c.32.25.35.73.07,1.1-.15.2-.36.32-.59.35-.03,0-.06,0-.09,0-.15,0-.3-.05-.42-.14-.32-.25-.35-.73-.07-1.1.15-.2.36-.32.59-.35.19-.02.37.02.51.13Zm9.23-8.57c-.32-.25-.35-.73-.07-1.1.15-.2.36-.32.59-.35.19-.02.37.02.51.13.32.25.35.73.07,1.1-.15.2-.36.32-.59.35-.03,0-.06,0-.09,0-.15,0-.3-.05-.42-.14Z"/><text x="0" y="115" fill="#000" font-family="'Helvetica Neue', Helvetica, Arial-Unicode, Arial, Sans-serif" font-size="5" font-weight="bold">Created by Jooyun Lee</text><text x="0" y="120" fill="#000" font-family="'Helvetica Neue', Helvetica, Arial-Unicode, Arial, Sans-serif" font-size="5" font-weight="bold">from the Noun Project</text></svg>