<svg
  xmlns:inkscape="http://www.inkscape.org/namespaces/inkscape"
  xmlns:sodipodi="http://sodipodi.sourceforge.net/DTD/sodipodi-0.dtd"
  xmlns="http://www.w3.org/2000/svg"
  xmlns:svg="http://www.w3.org/2000/svg"
  viewBox="0 0 26.458333 33.07291625"
  version="1.1"
  xml:space="preserve"
  x="0px"
  y="0px"
>
  <g>
    <path
      style=""
      d="m 10.457754,25.115878 c -0.5188097,-0.30154 -1.0546797,-0.74979 -1.4633997,-1.22412 -0.45488,-0.52792 -0.89012,-1.21074 -1.32067,-2.07198 -0.72906,-1.45832 -1.06646,-2.53958 -1.19998,-3.84552 -0.0311,-0.30467 -0.0322,-1.24879 -0.002,-1.54941 0.076,-0.74965 0.22008,-1.43873 0.42537,-2.03476 0.0409,-0.11882 0.0736,-0.25684 0.0829,-0.35046 0.037,-0.37194 0.2926,-0.65597 0.83051,-0.92283 0.11293,-0.056 0.27492,-0.12954 0.35996,-0.16334 l 0.15461,-0.0615 -0.0323,-0.049 c -0.063,-0.0956 -0.31284,-0.52123 -0.53822,-0.91703 -0.57084,-1.0025 -0.99213,-1.86175 -1.14608,-2.3374998 -0.26474,-0.81811 -0.64807,-2.83693 -0.92436,-4.86818 -0.13734,-1.00971 -0.17562,-1.63949 -0.10646,-1.7514 0.025,-0.0405 0.10966,0.007 0.23374,0.13231 0.19411,0.19544 0.42336,0.57482 0.67476,1.11669 0.1542,0.33236 0.58664,1.37001 0.7848,1.88315 l 0.14753,0.38203 0.0114,-0.73671 c 0.0169,-1.0887 0.0851,-1.73901 0.24929,-2.37756 0.0804,-0.31248 0.0998,-0.36432 0.12273,-0.32795 0.0501,0.0793 0.29321,0.90995 0.52428,1.79145 0.0979,0.37337 0.10043,0.37996 0.10512,0.27068 0.003,-0.0616 0.0177,-0.22961 0.0335,-0.37335 0.0714,-0.65058 0.56192,-2.46858 0.84202,-3.12059 0.11659,-0.2714 0.13577,-0.19645 0.0939,0.36712 -0.064,0.86234 -0.0769,1.24855 -0.0532,1.59198 0.0406,0.58719 0.0903,0.83294 0.39433,1.95207 0.15244,0.56109 0.3304597,1.26597 0.3955897,1.5664 0.0699,0.32258 0.12361,0.53277 0.13107,0.51336 0.007,-0.0181 0.0349,-0.22188 0.0621,-0.45289 0.0272,-0.23101 0.0995,-0.68884 0.16066,-1.01738 0.37564,-2.01807 0.61698,-3.10815 0.68814,-3.10815 0.0338,0 0.17243,1.00666 0.25621,1.86088 0.0284,0.28938 0.0538,0.52398 0.0564,0.52132 0.003,-0.003 0.0802,-0.37804 0.17222,-0.83417 0.0921,-0.45613 0.22228,-1.08554 0.28938,-1.39869 0.0683,-0.31868 0.16915,-0.87613 0.22907,-1.2661 0.0601,-0.39148 0.11271,-0.68183 0.11995,-0.6627 0.007,0.0187 0.031,0.30285 0.0532,0.6314 0.0639,0.94791 0.10725,1.25953 0.35521,2.55505 0.11511,0.6014 0.51224,2.54959 0.52943,2.5972 0.004,0.0103 0.0121,-0.0107 0.0186,-0.0467 0.0134,-0.0736 0.17271,-1.57057 0.24445,-2.29611 0.0501,-0.50697 0.14644,-1.22678 0.18347,-1.3714 0.0123,-0.0481 0.0308,-0.0889 0.0411,-0.0907 0.0229,-0.004 0.0366,0.043 0.15844,0.5474 0.17909,0.74123 0.28725,1.02357 0.78051,2.03753 0.1803,0.37063 0.23141,0.49409 0.26278,0.6347 0.0495,0.22172 0.0766,0.44742 0.0783,0.65011 7.1e-4,0.0875 0.007,0.17476 0.0149,0.19383 0.0235,0.0597 0.80053,-2.14515 1.09447,-3.10548 0.4582,-1.497 0.57295,-1.81786 0.84453,-2.36145 0.15941,-0.31907 0.24989,-0.46714 0.26689,-0.43673 0.008,0.0143 -0.001,0.15433 -0.0206,0.31112 -0.0738,0.59808 -0.14766,1.54146 -0.17788,2.27238 -0.0159,0.38464 0.0273,0.98319 0.10515,1.45655 0.0118,0.0716 0.0216,0.2352 0.0218,0.36354 4.8e-4,0.25593 -0.0202,0.39999 -0.1708,1.19352 -0.0515,0.27142 -0.0914,0.49576 -0.0886,0.49855 0.0154,0.0154 0.54781,-1.06962 0.88074,-1.79475 0.46223,-1.00673 0.92761,-1.954 0.93799,-1.90924 0.0188,0.0809 -0.28074,1.02185 -0.74971,2.35521 -0.13673,0.38873 -0.19313,0.59996 -0.22585,0.84581 -0.0444,0.33319 -0.0373,0.43114 0.0662,0.91496 0.0516,0.24118 0.11215,0.55103 0.13459,0.68856 l 0.0408,0.25004 0.0394,-0.1166 c 0.14383,-0.42541 0.5717,-1.18306 1.01245,-1.79279 0.10241,-0.14167 0.34115,-0.42545 0.54712,-0.65031 0.45537,-0.49717 0.89729,-1.00127 1.05991,-1.20903 0.16466,-0.21037 0.20286,-0.24847 0.24118,-0.24057 0.0896,0.0185 -0.003,0.33096 -0.38712,1.30265 -0.58871,1.49036 -0.57041,1.4381 -1.06287,3.03589 -0.34926,1.1331598 -0.4045,1.2942498 -0.85964,2.5067598 -0.26751,0.71268 -0.48397,1.2982 -0.481,1.30116 0.003,0.003 0.0987,0.0466 0.21269,0.097 0.54899,0.24269 0.83232,0.50076 0.92698,0.84434 0.0154,0.056 0.0701,0.22024 0.12155,0.36492 0.14842,0.41764 0.27477,0.9337 0.34693,1.41702 0.0868,0.58154 0.13167,1.48625 0.1041,2.1001 -0.0346,0.76995 -0.0961,1.12656 -0.31691,1.83678 -0.47779,1.53681 -0.96088,2.71247 -1.40839,3.42747 -0.1826,0.29175 -0.55258,0.83009 -0.73129,1.06405 -0.16889,0.22111 -0.67803,0.72498 -0.94949,0.93967 l -0.2045,0.16172 -2.78231,-7.2e-4 -2.78232,-7.1e-4 -0.17179,-0.0999 z m 4.21634,-10.21953 c 2.04528,-0.17554 3.31228,-0.586 3.25931,-1.0559 -0.008,-0.0698 -0.0951,-0.23462 -0.12399,-0.23426 -0.006,0 -0.0315,0.0358 -0.0559,0.0793 -0.0244,0.0436 -0.0939,0.1548 -0.15455,0.2472 l -0.11018,0.16801 -0.25614,7.2e-4 c -0.28145,9.5e-4 -0.27086,-0.001 -0.95426,0.2158 l -0.28744,0.0914 h -0.52103 -0.52103 l -0.31158,-0.0952 c -0.53459,-0.16332 -0.62228,-0.18486 -0.75014,-0.18425 -0.28481,10e-4 -0.70865,0.0916 -0.92434,0.19691 l -0.13084,0.0639 h -0.38345 c -0.27335,0 -0.38989,-0.006 -0.40586,-0.0224 -0.0174,-0.0174 -0.0224,-0.0174 -0.0224,0 0,0.017 -0.14536,0.0224 -0.59811,0.0224 -0.55245,0 -0.60345,-0.003 -0.66819,-0.0358 -0.0385,-0.0197 -0.19853,-0.0708 -0.35552,-0.11358 -0.21336,-0.0582 -0.37696,-0.11951 -0.6478597,-0.24293 -0.37801,-0.17221 -0.45453,-0.19509 -0.71764,-0.21461 l -0.15918,-0.0118 -0.11134,-0.17601 c -0.0612,-0.0968 -0.1199,-0.17602 -0.13036,-0.17602 -0.051,0 -0.27725,0.17712 -0.32757,0.25648 -0.11176,0.17623 -0.0935,0.3001 0.0664,0.45134 0.37632,0.3559 1.6592497,0.66033 3.2667197,0.77518 0.5838,0.0417 0.64431,0.043 1.67075,0.0372 0.7365,-0.004 1.01368,-0.013 1.36575,-0.0432 z"
      fill="#000000"
      stroke-width="0.0186675"
    />
  </g>
  <text
    x="0"
    y="41.458332999999996"
    fill="#000000"
    font-size="5px"
    font-weight="bold"
    font-family="'Helvetica Neue', Helvetica, Arial-Unicode, Arial, Sans-serif"
  >
    Created by Neneng Yuliani Lestari
  </text>
  <text
    x="0"
    y="46.458332999999996"
    fill="#000000"
    font-size="5px"
    font-weight="bold"
    font-family="'Helvetica Neue', Helvetica, Arial-Unicode, Arial, Sans-serif"
  >
    from the Noun Project
  </text>
</svg>
