<svg xmlns="http://www.w3.org/2000/svg" x="0" y="0" data-name="Layer 1" viewBox="0 0 100 125"><defs><style>.cls-1{stroke-width:0}</style></defs><path d="M53.7350972,63.2293139c-.0221586-.2886065-.0408057-.5770918-.0537618-.8644875-.1029224-2.2845136.0122296-4.5767767.3217838-6.8425826.0849412.1850181.1881663.3568985.3328631.4972362.3608338.3427921.9020239.4148983,1.3530661.5952546,1.1186452.4331216,1.8582939,1.5155018,2.3814423,2.5979425.5232695,1.0825618.9201261,2.2371088,1.6958581,3.1572349.2165003.2706253.5412506.5232695.8840427.4150194.2165608-.0722273.3427921-.3247504.4150194-.5413112.2164397-.7577509-.0361439-1.5515246-.1804774-2.309215-.144273-.7577509-.144273-1.6597748.3969171-2.2010859.2705648-.2525231.6495008-.3968566.9020844-.6854631.8839822-.9743117-.1624357-2.8145639.775732-3.698546.3608943-.3427921.9561489-.4690839,1.154668-.9381072.0721668-.1985191.0540645-.4330611,0-.6495613-.1623752-.6313985-.5051673-1.1906303-.7578114-1.8041083-.2344209-.5952546-.3427921-1.3169827,0-1.8762145.1263524-.2165003.3248715-.3968566.4690839-.5953757-.1081896-.1804169-.2164397-.3788149-.2886065-.577334-.0722273-.2165003-.1082501-.4510422-.1623752-.6854631-.2886065-.0361439-.577334-.144394-.8478988-.2887276-.9201261-.5592923-1.5695663-1.5154413-1.7500437-2.5799008-.0902084-.5592923-.0721668-1.1727097-.3607732-1.6597748-.1083107-.1804774-.2706253-.3427921-.4330611-.4690839-.144273-.0360834-.2705648-.0722273-.3968566-.1082501-1.8943167-.5592318-3.0489847-2.6159842-3.0850681-4.5825282-.0180417-1.0462968.198398-2.2551505-.5231484-3.0489242-.2706859-.3067087-.6675425-.487065-.9922323-.7396487-.4510422-.3427921-.7938343-.7938343-1.0825618-1.2809598-.2524625.5413112-.3608338,1.1727097-.3066482,1.7861271.0721062,1.0103345.4509817,1.9483812.7937737,2.9046512.4330005,1.2087326.7938343,2.4535485,1.0824407,3.698425,1.8041083-.2706859,3.3736746,1.1365658,4.654695,2.4355068-1.064399-.9381072-2.6160448-1.298941-3.9691108-.920005.1082501.7576904.2165003,1.5153807.3247504,2.2911127,1.8041083-.3787544,3.7886939.5232695,4.6907783,2.1288586-1.2629182-.8659405-2.7964011-1.3169827-4.3119029-1.2448159.4330005,1.4433956.6134779,2.9407346.577334,4.4200925,1.6057102-.4510422,3.4458413-.0540645,4.7448429,1.0464179-1.2809598-.6855841-2.8144428-.8839822-4.2216945-.5411901.0902084,1.0643385.2525836,2.1287981.4871256,3.1752765,1.2268348-.1082501,2.5077946.2344209,3.5361708.9380467-.9743117-.1262918-1.9485023-.2525836-2.9047723-.3788149.2165003,2.0206085.5052278,4.0231753.8480199,6.0256816-1.0464179-1.8942562-2.1288586-3.8608001-2.2551505-6.0077005-1.1004824.4509817-2.0386502,1.2809598-2.5979425,2.3454194.1803563-1.2448159.9201261-2.3814423,1.9664229-3.0308825-.3427921-.811876-.4510422-1.7139604-.3066482-2.5979425-1.6057102.5952546-3.0489847,1.6416725-4.0954026,2.9766969.5953757-1.7138998,1.7861877-3.2112388,3.3196101-4.2035922-.3066482-1.1365053-.5592318-2.309215-.7216675-3.5000269-1.7860666.3969777-3.463883,1.3171038-4.7627635,2.5979425.6855236-1.8041083,2.5256547-2.8504051,4.2215734-3.7344478-.0721668-.5953757-.1623146-1.1727097-.2345419-1.7500437-1.6055891.5052278-3.0669053,1.4252328-4.2215734,2.6340864.7395881-1.5516457,2.0927147-2.7964011,3.698425-3.3917768,0-.3066482.0180417-.6315196.0180417-.9381678-1.2267742-1.2629182-3.1391326-1.5515246-4.9072786-1.7499227,1.5695663-.7036258,3.5000269-.4871861,4.8892369.5231484.2525836-1.2809598-.144394-2.688151-1.2268348-3.4458413-.7216675-.4871256-1.6597142-.6315196-2.2190065-1.2990015-.5953757-.6855841-.7578114-1.876275-1.6417936-2.0567524-.7036258-.1623146-1.298941.4690839-1.7139604,1.0464179-.577334.8299782-1.0824407,1.7139604-1.2629182,2.7061927-.198398.9741906-.0359623,2.0567524.6315196,2.8144428.1465736.1747864.318454.3275353.4939669.4765306-.377483,1.7074823-.2605147,2.870263-.0470416,4.1646028.0513401.311431.8126025,4.7518658,1.0570129,4.9515352,0-1.6659501-.4845828-5.3087364-.3678567-6.7319108.0317849-.3879568.0949913-.9274517.2306672-1.4881971.0428641.0662336.0969892.1236885.1307114.1970055.5231484,1.0644596-.2345419,2.4535485.3427921,3.4819247.2524625.4690839.7576904.7757926.9741906,1.2629182.3246898.7397698-.0361439,1.5695663-.2526442,2.3272567-.2345419.7758531-.1622541,1.8222105.577334,2.0928358.2706859.0902084.5592923.0721668.811876.1803563.577334.2345419.721607.9922928.7396487,1.6237519.0181022.6495008.0541856,1.38921.577334,1.7499832.0405635.0258517.0884527.0378391.1321039.0578787-.3976436,3.19798-.5675867,6.4228409-.4844012,9.644372-.2975062-.0038747-.5932567-.0089603-.8956669-.0089603-.2280033,0-.4500735.0046012-.6752919.0067808-1.3568197-9.5057295-3.3630796-18.9123508-5.3705504-28.3055317-.1711539-.8007967-.3766354-1.6614094-.9987709-2.1939419-.3121575-.2671744-.6928493-.4144745-1.0949125-.5094052.3305019-.4186519.850381-.7369242,1.2106094-1.1536388.6663921-.7709492.750728-1.8911079.609361-2.9002922-.1413064-1.0091237-.4739273-1.9913059-.5210294-3.0092083-.1272-2.7501466,1.8082857-5.1737265,2.243829-7.8921487.0982606-.6130541.0893003-1.3195255-.3521762-1.756098-.4107814-.4063012-1.0861944-.4365725-1.6214513-.219043-.5351964.2175295-.9595998.6369079-1.3548218,1.0582842-1.8426739,1.9646672-3.3661673,4.2181224-4.5482611,6.638312-.4263408-1.0838938-.5899874-2.2710126-.4454117-3.4270731.1474212-1.1785824.5927724-2.3001941.8001307-3.4697556s.1369473-2.4803083-.6223777-3.3936536c-.7592645-.9134059-2.3714527-1.1371107-3.0987507-.1980953-.4568543.5899269-.4419608,1.4010763-.5248436,2.1426018-.0828828.7414649-.3918316,1.5859128-1.1095033,1.7899413-.6592481.1873793-1.46174-.2410805-2.0083789.1723042-.4684785.3542952-.3982491,1.0581026-.5148541,1.633802-.2619677,1.2930684-1.5843387,2.0674079-2.8295179,2.5034961s-2.6221596.7473376-3.5132858,1.7202568c-.2437444.2660846-.4466831.5897452-.4790129.9491865-.0258517.2871534.0594528.5741858.1821726.8350638.4139901.8802285,1.2239287,1.4959465,1.8543586,2.236685.6303693.7407384,1.0966077,1.80096.6599746,2.6701698-.4138085.8237423-1.423356,1.098424-2.2564824,1.49298-.6934547.3284435-1.3485859.8243477-1.6540232,1.5282763-.3053768.703868-.1604984,1.6376162.4748354,2.0678923.5014136.3395833,1.1551524.3024707,1.7554926.381842.6003402.0793108,1.2804755.4018816,1.3528844,1.00313.0325114.2697172-.0708954.5397976-.2170451.7688302-.6128725.9608107-1.8427344,1.2623733-2.8784968,1.7376931-1.0357019.4753198-2.0739465,1.5395977-1.6760002,2.6075083.2571243.6898827,1.0021613,1.0407269,1.5455309,1.5375393.5434302.4968124.8370011,1.5042409.208993,1.8886257-.2218885.135797-.4951777.1439702-.752968.1790244-.8999049.1225987-1.766814.6691166-2.1327939,1.5003056-.3659193.831189-.1278054,1.9270097.6320645,2.424367.5657704.3702784,1.3191017.3862616,1.8532083.8008572.9800632.7607175.6736573,2.2897203.2672955,3.4619456-.2849134.8218655-.5865365,1.6668582-1.1714383,2.310668-.3312284.3646479-.7457029.6550101-1.0263178,1.0598584-.4150194.5987055-.4836746,1.3635399-.5392527,2.0899298-.1538992,2.0120115-.24102,4.2486964,1.0456914,5.8032482.1690349-1.9364543,2.147203-3.1933182,2.8685073-4.9982741.1911935-.478468.2830971-.9838169.3568985-1.4945541,1.2423337-.3220865,2.6414726-.210446,3.8950672-.5839332,1.9761097-.5888371,3.4755072-2.5140305,3.5624463-4.5741733.0158016-.3754245-.009263-.7616862.1143044-1.1165262.2878194-.8267089,1.252081-1.1854237,2.1162658-1.3248532s1.8103441-.1926465,2.4719534-.7658031c1.0432697-.9039007.8269511-2.5634333.4104787-3.8795078-.4164118-1.316014-.9302972-2.8082674-.243805-4.0057996.4451696-.7764586,1.290465-1.2135154,2.0584476-1.6732152,1.0771735-.6447179,2.0818171-1.410521,2.9888054-2.2783988.4874888-.46642.9764912-1.0326142.9767334-1.7073007.0002422-.7242709-.5605032-1.3715921-.6997511-2.0564497.2245524.0767074.4540088.1509932.629885.2965981.5551754.4595787.6823754,1.2463295.7719179,1.9614584.2591828,2.0691031.518305,4.1382062.7774878,6.2073094.3641636,2.9079811.7285088,5.816507,1.1854237,8.7113503.6705696,4.2481516,1.5287606,8.5199147,1.5952364,12.799609-5.8461729.303621-10.1674599,1.3550034-10.1792657,2.6099905l-.001453-.0000605.0006054.0034509c0,.0005449-.0004238.0011503-.0004238.0016952,0,.0032088.0023612.0062964.0024217.0094446l4.4360152,25.0581489c.3502388,1.9782287,2.0063205,3.3033241,3.9844886,3.6539262,1.6596537.2941764,3.3562383.4214974,5.0246707.4214974,1.8596863,0,3.6843791-.1582583,5.3821746-.4201655,1.9901556-.3070114,3.6427863-1.6794511,3.995023-3.6620389l4.4533304-25.0659589-.0077494.0003633c-.0112609-1.2726655-4.4539963-2.3364591-10.4256134-2.6228861ZM37.0579783,29.649434c-.1827175-.0355385-.3849902-.0595739-.5437934.0374153-.1321644.0807033-.2054815.2282455-.2720178.3680383-.4444431.9339298-.8889467,1.8678596-1.3333897,2.8017894,1.8449745.4932404,3.5195822,1.6025015,4.6934422,3.1089219-.8287673-.512614-1.8020498-.9591761-2.7523866-1.0613114-.6162024-.2421703-1.2897385-.3385541-1.9472309-.258093-.0758598.009263-.1537781.0215532-.219043.0612085-.0951729.0578182-.1482688.1636466-.1967028.2639051-.9956227,2.0618986-2.051909,4.094555-3.1669217,6.0943974.0022401-.0008476.0044196-.0016952.0066597-.0025428l-.0919036.1707301c.9207315.5740042,1.4986104,1.5866999,1.7732315,2.6364476.2746211,1.0496872.2799489,2.1484139.283642,3.233458-.3148214-.9642616-.8201703-1.8596863-1.4548381-2.6507962-.31355-.620622-.7013858-1.1943234-1.2963377-1.5310007-.7925023,1.7419916-2.1432678,3.1626231-3.1437944,4.7941245-.0465572.0759204-.0940226.1590454-.0866364.2478008.0069624.0834277.0610269.154323.1129724.2200117l.1127908.1425778c.0288183.0676261.0586052.1353127.0923274.1999116.8331869,1.5986873,1.8225132,3.3616871,1.3346611,5.0972007-.2927839-1.2050395-.8832557-2.3366408-1.7041525-3.266151-.1061311-.1201165-.2389616-.2466505-.398915-.2360555-.1215695.0081127-.2106882.0929934-.28231.1965212.0026033-.1890745-.0214321-.3760299-.0902084-.5519667-.1184818-.302834-.3554455-.5415534-.5898663-.7668928-.9637773-.9264831-1.9916086-1.7863087-3.0737466-2.5712433,1.2936738-.2656003,2.6833076-.0325114,3.8196312.6405405.7263898-1.9022478,1.6459105-3.7306336,2.7398543-5.4479844-.727298-1.1753736-2.2932923-1.7552504-3.6106988-1.3370223,1.190812-1.2629787,3.3224556-1.4949779,4.7570725-.517639.8193832-2.0514247,1.7858849-4.0441231,2.8895761-5.9576923-1.5732594-.8843454-3.5251521-1.0656099-5.2343296-.4860358,1.2517178-1.7451398,3.8529902-2.3509894,5.7470041-1.3385358.1344651-1.063612.4397813-2.1053681.9005708-3.0733834-1.4320136-1.4463622-3.4733277-2.2691358-5.5081031-2.2200963,1.7620917-1.1558183,4.2910762-.969771,5.8650622.4314264.6507722-1.1836074.6397534-2.7046186-.0279707-3.8786602-.6677846-1.1741022-1.96945-1.9610346-3.3193679-2.0067443,1.4200261-.9801843,3.5026908-.012048,4.3456856,1.4935248.3361929.6004613.5770918,1.2950057,1.1087162,1.7201962-.1403377.2732892-.2478613.5224219-.1996089.7887487,1.8052586-1.0680316,4.3384205-.6857658,5.7480939.8673935-1.2545027-.4104181-2.6211909-.6151126-3.8939169-.2651159s-2.4234588,1.3445296-2.6754976,2.6402012c1.9776838.0837909,3.8310737,1.4982472,4.4338356,3.3837246-.9053537-1.1372318-2.2243948-1.9375441-3.6511412-2.2152529ZM57.9388105,90.6021872c-.2008197,1.130451-1.1796721,1.9918508-2.4937488,2.1946079-1.7167453.2648132-3.4350042.3990967-5.1071296.3990967-1.650875,0-3.2355164-.1325277-4.7098493-.3938295-1.0654283-.1887718-2.2876618-.8638215-2.5228092-2.1920046l-4.0453945-22.8517352,2.3631584.1094004c2.4151645.4309421,5.599583.6954526,9.1031214.6954526,3.5024486,0,6.6860801-.2643289,9.1010024-.6950288l2.3701814-.1097637-4.0585322,22.8438041Z" class="cls-1"/><path d="M79.6297629,28.2720904c.5592923-.4690839.4148983-1.38921-.0180417-1.9845857-.4330005-.577334-1.100543-.9380467-1.6057102-1.4613162-1.2627971-1.2808388-1.4794184-3.3014473-1.1726492-5.0876349.1804169-1.0824407.523209-2.1829232.3788149-3.2834056-.2524625-1.8943772-2.1469003-3.4098185-4.041217-3.2294016-.3968566.0360834-.811876.1443335-1.1725886,0-.6495613-.2526442-.8299176-1.0824407-.7578114-1.7680249.0722273-.6855841.3067692-1.38921.1082501-2.0567524-.2525231-.8659405-1.1906909-1.3891494-2.0927147-1.4613162-.9020844-.0540645-1.7860666.2526442-2.6340864.5592923-.7576904.2525836-1.6055891.5231484-2.309215.1262918-.43294-.2345419-.7036258-.7036258-.9743117-1.1185241-.5952546-.9201261-1.3530661-1.7860666-2.36334-2.2190671-.9922928-.4510422-2.2731316-.3969171-3.0669659.3427921-1.1186452,1.0462968-.866001,2.9406135-.0722273,4.2396756.811876,1.2988805,2.0387107,2.2912338,2.8324845,3.5901748.6313985,1.0283157.9020844,2.3814423.9381678,2.7061321-.2525836.4330005-.4871256.8840427-.6314591,1.3531266-1.0463574-1.3169827-2.1288586-2.6159842-3.265485-3.8608607-.8297966-.9201261-1.7499227-1.8401311-2.9226324-2.2551505-1.3531266-.4690839-2.9767574-.1082501-4.0231753.9020844-1.0283762,1.010274-1.4432745,2.6159842-1.010274,3.9871525.1082501.3788754.2886065.7576904.3608338,1.1365658.1623146.9020844-.2345419,1.8041083-.4690839,2.688151-.4871861,1.7679643-.2165003,3.8066145.9381678,5.2319684.6133568.7215464,1.4252328,1.2808388,2.0025668,2.0206085.8297966,1.0643385,1.1906303,2.4896924,1.8581728,3.6442393.2887276.4871256.6315196.9381678,1.0825013,1.2809598.3247504.2525836.721607.4330005.9922928.7396487.7215464.7938343.5050462,2.0026274.5231484,3.0489847.0360834,1.9664835,1.1907514,4.0232359,3.0850681,4.5825282.1262918.0359623.2525836.0721062.3968566.1081896.1624357.1263524.3246898.288667.4330611.4691444.2886065.4870045.2705648,1.1004824.3607732,1.6597142.1804774,1.0645201.8299176,2.0206085,1.7500437,2.5799008.2705042.1443335.5592318.2525836.8478383.2887276.0541856.2344209.0902084.4689628.1624357.6854631.0721062.1985191.1803563.3969777.2886065.577334.4871861.8299176,1.2990621,1.4433956,2.0386502,2.0928358,2.7603783,2.3814423,4.997487,5.3221769,7.1984519,8.2267676.2165003-1.2809598.2165003-2.6159842,0-3.8969441-.1623146-.9922323-.4510422-1.9845251-.2705648-2.9767574.2165003-1.2267742,1.154668-2.2010859,1.9664229-3.1752765.9201261-1.1185241,1.7500437-2.4535485,1.6598958-3.8969441-.0541856-.8117549-.3969777-1.5695663-.8480199-2.2371088-.3247504-1.4613162-.4690839-3.084947.5411901-4.1313649.5592923-.577334,1.38921-.8299176,1.966544-1.4072517,1.1366263-1.1004824.9020844-3.0850076-.0901479-4.3298235-.5232695-.6675425-1.2629182-1.5515246-.7397698-2.2190671.4150194-.5413112,1.2990015-.3788754,1.8402522-.811876ZM65.99061,31.8261818c.577334,2.1469003,1.154668,4.275759,1.732002,6.4046176.0540645.1985191.1082501.4150194.2525231.5592318.1443335.1624357.3608338.2345419.5772735.2887276,1.5515246.4871861,3.0851286,1.0283762,4.6366533,1.5515246.198398.2345419.4148983.4690839.6134174.7036258-1.6057102-.3427921-3.2475038-.577334-4.9072786-.7036258.378936.3427921.6134779.8659405.577334,1.3711683.8478988,3.1210909,1.6237519,6.2422424,2.2732527,9.3994773-1.2809598-2.2912944-2.2371088-4.7809868-2.7964011-7.3427854-.1262918-.5411901-.2345419-1.1185241-.5413112-1.587608-.1261707-.1984586-.2886065-.3608338-.4870045-.5052278-.5592923-.6133568-1.4073122-.9741906-2.2551505-1.0824407-.9382283-.0901479-1.8943167.0721668-2.8144428.2705648.775732-1.2087326,2.164942-2.0206085,3.6082165-2.1107564-.43294-1.4794184-.8660616-2.9587763-1.2990015-4.4561153-.144273-.4691444-.2886065-.95627-.5953152-1.3350849-.6855236-.8299176-1.9304001-.8841033-2.976818-.6495613-1.2267742.2887276-2.3634006.8840427-3.3015684,1.732002.2887276-1.2267742.9381678-2.3814423,1.966544-3.1391326,1.010274-.7397698,2.3814423-1.0103345,3.5540915-.577334-.523209-1.6778164-1.0283762-3.3556329-1.5515246-5.0334493-2.9226929-.667603-6.1160111-.0722273-8.6057036,1.6055891,1.4072517-2.688151,4.7448429-4.2035317,7.7036192-3.5179475-.4690839-.811876-.3066482-1.8944378-.811876-2.6882115-.3427921-.5231484-.9201261-.8478988-1.5153807-1.0824407-2.1650026-.8659405-4.70882-.7757926-6.819637.2345419,1.0464179-1.4432745,2.7782989-2.3634006,4.5464448-2.4356279,1.786006-.0721062,3.5720726.7036258,4.7267406,2.0386502.0181022,0,.0361439-.0179206.0361439-.0360228,0,0,0,.0181022.0179206.0181022v-.0361439c.0541856-.0541856.1082501-.1443335.1262918-.3427921.8660616-2.399484,2.7242343-4.4562364,5.0515516-5.5386166-1.497339,1.9123584-2.6700487,4.0953421-3.4277996,6.4045571,2.9046512-2.2551505,6.9098454-3.0308825,10.427793-1.9844646-3.7524895.5953757-7.3788082,2.1288586-10.4096907,4.4200925-.0541856.8298571.6132963,1.6417331,1.4432745,1.7499227.3968566.0721668.811876-.0180417,1.2087326-.0901479,3.4819247-.5592923,7.1262851.3968566,10.0308758,2.3814423-3.7164666-.9743117-7.6494335-1.1366263-11.4380669-.4871256.4330005.9922323.6675425,2.0747336.6855841,3.1571743,2.2009649.4330005,4.3659674,1.0645201,6.4586821,1.8582939,1.7500437.6675425,3.554152,1.5515246,4.5103009,3.1572349-3.3737351-.9381678-6.7834931-1.7861877-10.2112927-2.543878Z" class="cls-1"/><text x="0" y="115" fill="#000" font-family="'Helvetica Neue', Helvetica, Arial-Unicode, Arial, Sans-serif" font-size="5" font-weight="bold">Created by NOVITA ASTRI</text><text x="0" y="120" fill="#000" font-family="'Helvetica Neue', Helvetica, Arial-Unicode, Arial, Sans-serif" font-size="5" font-weight="bold">from the Noun Project</text></svg>