<svg
  xmlns="http://www.w3.org/2000/svg"
  data-name="Layer 1"
  viewBox="0 0 100 125"
  x="0px"
  y="0px"
>
  <defs>
    <style>
      .cls-1 {
        stroke-width: 0px;
      }
    </style>
  </defs>
  <path
    class="cls-1"
    d="M30.394591,93.1936049c0,2.0462555,1.6588533,3.7050407,3.7051089,3.7050407h20.5215419c2.0462555,0,3.7050407-1.6587851,3.7050407-3.7050407v-1.2066682h-27.9316914v1.2066682Z"
  />
  <path
    class="cls-1"
    d="M84.1137937,13.7762232c-14.025446,15.6598864-22.2172192,28.9415557-30.1509516,48.4099992-.6958374,1.7074065-2.1254271,7.1584506-2.4905304,10.9704855h-.7276833c3.0949896-22.3121433,13.9355682-43.3304001,15.3013979-65.72983.0345737-.5674989-.7634162-.7395488-.9642434-.2077147l-10.3604344,27.4370904c-.1875979.1686403-.392653.3164137-.6247807.4163159.1046757.2625415.1471596.5400854.158275.8191296l-.7970352,2.1106975c-.2508124.2615868-.5502461.4740068-.8908682.6082099.2051916.2862044.295274.6412151.2863408.9928162l-.3708996.9822463c-.2459025.2885911-.5855699.4990335-.9598791.5625208.2236717.3390536.3227556.7487548.3115038,1.1544326l-.4457751,1.1806186c-.2445387.2957513-.5631345.5308794-.929738.6450339.197213.2561996.313345.5672943.3520784.8880723-.1956446.5179228-.3880841,1.0316177-.5808646,1.5445625-.2471982.2226489-.5479958.3854246-.8753885.4457751.2105106.2369693.3388491.5371532.3880841.8499526-.1859612.4997154-.3612844.9971805-.5433587,1.4952593-.2407199.2103742-.5344255.3596478-.8510437.4052687.1978267.3269835.2935692.6973376.3138224,1.0743745-.2274223.6376009-.4458433,1.2824301-.6648097,1.9230315-.2054643.2324004-.4476163.43125-.7328659.5640892.1562293.2206713.2510852.4795986.2928872.7465727-.1648215.5000564-.332439,1.0003173-.4909186,1.5054882-.2377876.2384695-.5332662.4192481-.8622273.4918733.2057371.2710656.3555562.5822967.4476163.9098257-.1988496.6678102-.4077236,1.3251187-.5936848,2.0073175.3857656,5.0639147,1.1223139,10.157425,2.3836725,14.17697h-.6313953c-2.4200874-9.2962888-3.2060072-19.0157128-2.305933-28.5796575-1.1381346.8006494-1.5268324,2.2843841-1.8068313,3.6474861-1.4396141,7.0081541-2.1308826,14.167423-2.0836933,21.3216457-.2756345-.4931007-.5463592-.9889292-.8306541-1.4768473-2.0208197-3.4686851-4.1122869-6.8959091-6.2591947-10.2879457.136658-.1825516.1942807-.4045867.0907644-.615711-.2397652-.0557816-.4587999-.1644806-.6625594-.2972516-.3548061-.5565199-.7220233-1.1049248-1.0801709-1.6592625-.045689-.2855906-.0411201-.5782051.031505-.8615454-.3392582-.0848998-.6440792-.2602912-.9085301-.4855995-.2654738-.4064961-.5274016-.8153108-.7946484-1.2206476-.0922646-.3142315-.1279293-.6434654-.0784215-.9695625-.2810899-.0571454-.5416539-.177028-.7768502-.3357804-.3447818-.5175819-.7008836-1.0275944-1.0486659-1.5431987-.0632827-.2903641-.0734434-.5911617-.0151388-.8857538-.3455319-.083195-.65499-.261996-.9217595-.492828-.2436522-.3573293-.4840993-.7167725-.7291835-1.0730788-.1283385-.3663989-.1783919-.7582336-.1074034-1.1423625-.3019569.0677835-.5846834-.0364149-.8273127-.2254448-.2146021-.3087079-.4365691-.612165-.6522623-.9201228-.2349235-.586661-.3790827-1.2450606-.8532259-1.6584442-.1716408-.1496146-.38522-.2680651-.595867-.3856974-.2850451-.4005634-.5660668-.8039226-.8528849-1.2031903.0284363-.1992588.0764439-.3985858.0295956-.5921846-.1001067-.41352-.5225599-.5471093-.9527871-.6959737-.4107923-.5660668-.8326317-1.1239505-1.2470382-1.6873578-.0440524-.2141248-.0967653-.4246354-.1940762-.6131879-.2030776-.3934713-.5683854-.6540353-.9352616-.914872-.3613526-.485395-.7147949-.9765181-1.0788752-1.4597991-.0120701-.2104424.0379151-.4131108.1858249-.5791598-.3511237-.0799217-.6763343-.2384014-.9682668-.4458433-.3598524-.4738704-.7266604-.9422172-1.0889677-1.4141101-.1185869-.3194142-.1839837-.6574449-.1768916-1.0001128-.3022978-.093833-.5950487-.2167843-.874502-.3651032-1.7320922-2.2312621-3.4822554-4.4485447-5.2714248-6.6343222-.2562678-.3130041-.7584382.0024549-.5921846.3713087,4.3962409,9.7542022,11.8706961,17.9298137,16.713053,27.5182396,3.3038636,6.5421258,5.4822764,13.8658071,9.5065266,19.8632787h-5.5704494c-.458868,0-.8308587.3719907-.8308587.8308587v16.8821025h27.9316914v-16.8821025c0-.458868-.3719907-.8308587-.8307905-.8308587h-3.2226462c2.6334621-11.8419188,10.1813606-27.3665111,16.5489816-37.1342154,5.8214664-8.9298899,11.0054001-16.9020147,14.1340769-21.7013422.3095262-.4748251-.4639825-.9671757-.8421105-.5449271Z"
  />
  <path
    class="cls-1"
    d="M35.9368087,58.680236c1.4556394,2.358714,2.8923212,4.729089,4.2875419,7.1240134.284295.4879181.5550196.9837465.8306541,1.4768473-.0167754-2.53997.0642374-5.0802128.2341052-7.6144546-.5709085-2.0040443-1.1780955-3.9816981-1.8085361-5.9440085.1688449-.1134725.2962287-.2735205.3325753-.4841675.1340667-.7759637-.8952325-1.2441059-1.132611-1.9949747-.162503-.5141041.0746709-1.0878085-.0743981-1.6060041-.1174277-.4080646-.4518442-.7099532-.7593247-1.0027723-.0392107-.0373014-.0769895-.0634191-.1157229-.0944468-.1764825-.496374-.3586931-.9894747-.5393353-1.4833938.0360739-.5237192.1244515-1.1218366.2918644-1.3225956.0415975-.0498488.0302093-.1084262-.0289819-.1350214-1.0739654-.4824627-1.9627196-2.2623579-1.6081862-3.72959-.3914938-.1873251-.6852675-.3957217-.9023928-.629145-.134885-.3305978-.2717475-.6601044-.4086783-.9896111-.0081831-.3042072.0529175-.6414197.2022593-1.0302539-.3726044-.1728683-.6886089-.4384785-.949582-.7522326-.2259221-.5263105-.4590044-1.0490751-.6902456-1.5727261-.0572136-.420612-.0366194-.8499526.0992202-1.2549485-.3387809-.0967653-.6377373-.2843632-.8916865-.5230373-.2608367-.5722042-.5289019-1.1412033-.7963533-1.7104751-.0141841-.2767938.0119337-.5550878.1044711-.8202207-.3792191-.2599502-.699247-.5966171-.958788-.9752907-.1700724-.3507828-.3446454-.6997243-.5173091-1.049416-.1518649-.4823945-.2114653-.9930207-.1612073-1.4968277-.376014-.1590252-.7018383-.4179525-.9582425-.7346389-.1614119-.3147089-.3271881-.6278493-.4907822-.9416717-.0784215-.2724977-.1157229-.5561107-.0960152-.8400647-.2642463-.2585182-.514445-.5306749-.7623933-.8048773-3.4401806-6.4200611-7.344821-12.6729821-11.7705211-18.8232732-1.6093455-.3294385.1648897,3.0645757,1.403813,5.2108016,8.3753477,14.509068,13.6772546,30.5102584,18.6347889,46.5484774Z"
  />
  <path
    class="cls-1"
    d="M40.5542664,31.0588891c-.0813538-.2469936-.4611866-.1886889-.468415.0712613-.2452888,8.8223502.1098583,17.6612712,1.062509,26.4354092,2.3798538-8.783685,2.1859822-18.070495-.594094-26.5066705Z"
  />
  <path
    class="cls-1"
    d="M56.9053531,51.2585619c1.2055771-1.8831388,2.2251247-3.3349594,2.9296225-4.9477145.7044978-1.6126869.8934595-2.9607866.466301-4.195891-1.1948026.5233101-2.5702475,5.6511894-3.3959236,9.1436056Z"
  />
  <path
    class="cls-1"
    d="M46.1094407,55.5887924c.6860176-.7288426.8816622-1.8786381.4753025-2.7933737,1.1987578-.7662803,1.6217566-2.528991.9013017-3.7558442.5036706-.1354987.9284423-.5344255,1.0953778-1.0285491.1669355-.4941918.0709885-1.0689873-.2474028-1.4820981.6097783-.182347,1.1282467-.6482389,1.3744902-1.2351045.2462435-.5867974.2154886-1.2831803-.0815584-1.846042.5672261-.1895754,1.0392553-.6450339,1.2489476-1.2050997.2096241-.5601341.1527514-1.2135556-.1505693-1.7290235.5546787-.0625326,1.0593721-.4549129,1.2566533-.9770637.1973494-.5221508.0782169-1.1502729-.2965015-1.5639974.4958966.058782.970108-.2823174,1.2211932-.7139084.2510852-.4316592.3252787-.9403078.394767-1.4347724.0278226-.1979631.0435751-.4077236.0385288-.612165,2.1585006-5.6330502,2.4605938-13.6794368,4.1393594-15.804182-.4839629-.6583314-3.0833969,3.2383305-3.7265895,5.8460157-.6431245,2.6077534-.9621295,5.3106356-1.9492856,7.8085307-.392994.9944528-.8867766,2.0536885-.8354276,3.0834651-.0898097.492828-.1774372.9969077-.4477527,1.4160195-.1165412.1807786-.2667013.3452592-.3323026.5500416-.0816947.2554495-.0193667.5311522.0022504.7984672.0876957,1.0864446-.5944349,2.191574-1.604913,2.6002523.3702177.4403878.501693,1.0702148.3385763,1.6220293-.1631167.5517464-.6159156,1.0088414-1.1661618,1.1770726.3945624.3165501.4109968.9407852.174914,1.3881287s-.6604454.7592565-1.0706239,1.0552124c.3171638.1071306.4396377.5155361.3572611.8399965-.0824449.3244604-.3091853.588775-.5072848.8586813-.1980313.2699063-.3800374.5840697-.3492825.9173951.0396881.4305681.409633.9144628.1173595,1.2330587-.1581387.1723909-.4625504.1991224-.5485413.4166568-.1375445.3476459.4500712.6317363.391221,1.0009311-.0372332.2334233-.3067303.3421905-.4525943.5282881-.1701406.2171253-.1579341.5207869-.1376127.7958759.0497806.6736066.0996294,1.3471449.3769005,2.2451052Z"
  />
  <text
    x="0"
    y="115"
    fill="#000000"
    font-size="5px"
    font-weight="bold"
    font-family="'Helvetica Neue', Helvetica, Arial-Unicode, Arial, Sans-serif"
  >
    Created by NOVITA ASTRI
  </text>
  <text
    x="0"
    y="120"
    fill="#000000"
    font-size="5px"
    font-weight="bold"
    font-family="'Helvetica Neue', Helvetica, Arial-Unicode, Arial, Sans-serif"
  >
    from the Noun Project
  </text>
</svg>
