<svg xmlns="http://www.w3.org/2000/svg">
  <symbol id="arrow-right-short" viewbox="0 0 16 16">
    <path
      fill-rule="evenodd"
      d="M4 8a.5.5 0 0 1 .5-.5h5.793L8.146 5.354a.5.5 0 1 1 .708-.708l3 3a.5.5 0 0 1 0 .708l-3 3a.5.5 0 0 1-.708-.708L10.293 8.5H4.5A.5.5 0 0 1 4 8z"
    />
  </symbol>
  <symbol id="x-lg" viewbox="0 0 16 16">
    <path
      fill-rule="evenodd"
      d="M13.854 2.146a.5.5 0 0 1 0 .708l-11 11a.5.5 0 0 1-.708-.708l11-11a.5.5 0 0 1 .708 0Z"
    />
    <path
      fill-rule="evenodd"
      d="M2.146 2.146a.5.5 0 0 0 0 .708l11 11a.5.5 0 0 0 .708-.708l-11-11a.5.5 0 0 0-.708 0Z"
    />
  </symbol>
</svg>
