<svg
  xmlns="http://www.w3.org/2000/svg"
  fill-rule="evenodd"
  clip-rule="evenodd"
  image-rendering="optimizeQuality"
  shape-rendering="geometricPrecision"
  text-rendering="geometricPrecision"
  viewBox="0 0 512 441.762"
>
  <path
    fill="#353134"
    fill-rule="nonzero"
    d="M109.769 441.724v.038c-3.453 0-6.627-1.43-8.931-3.734l-.019.019a12.625 12.625 0 01-3.715-8.953V284.063c0-.63.06-1.247.177-1.846h-5.505c-5.805 0-11.082-2.371-14.901-6.19l-.667-.74c-3.427-3.761-5.522-8.74-5.522-14.16v-43.201c0-5.807 2.372-11.084 6.189-14.901l.739-.667c3.761-3.427 8.74-5.522 14.162-5.522h41.775V92.229h-6.87c-16.004 0-29.111-13.114-29.111-29.114v-8.577H85.975v23.673a7.38 7.38 0 01-7.379 7.379H58.265v.09c0 2.771-2.294 5.066-5.066 5.066H5.066C2.294 90.746 0 88.466 0 85.68V71.784c0-2.786 2.279-5.065 5.066-5.065h48.133c2.459 0 4.526 1.787 4.974 4.112h13.044V47.159a7.382 7.382 0 017.379-7.38H97.57V29.112C97.57 13.139 110.708 0 126.681 0h329.323c15.974 0 29.112 13.139 29.112 29.112v34.003c0 16.01-13.121 29.114-29.112 29.114h-6.872v104.607h41.778c5.773 0 11.046 2.379 14.879 6.208l.02-.019c3.819 3.819 6.191 9.096 6.191 14.901v43.201c0 5.806-2.374 11.083-6.191 14.9-3.817 3.817-9.094 6.19-14.899 6.19h-9.06c.092.604.138 1.22.138 1.846v145.031c0 3.448-1.421 6.611-3.715 8.914l-.039.039c-2.316 2.299-5.473 3.715-8.914 3.715-120.481 0-239.193-.043-359.551-.038zm136.784-330.587h4.424c1.268-6.499 3.373-13.012 6.343-18.908h-96.538c-.24.124-.456.282-.641.466l-.051.051c-.477.478-.776 1.169-.776 1.952v99.34c0 .633.197 1.207.529 1.656l.301.291a2.774 2.774 0 001.95.829H420.59c.74 0 1.433-.32 1.945-.831.514-.514.834-1.206.834-1.945v-99.34c0-.778-.301-1.472-.781-1.95l-.051-.05a2.642 2.642 0 00-.64-.469h-96.531c2.963 5.889 5.055 12.397 6.317 18.908h4.503c2.488 0 5.005 2.09 4.522 4.52l-12.818 64.217c-.485 2.432-2.042 4.522-4.523 4.522h-57.586c-2.478 0-3.81-2.141-4.523-4.522l-19.227-64.217c-.711-2.379 2.034-4.52 4.522-4.52zm21.697-18.908c-3.553 5.537-6.053 12.162-7.549 18.908h61.235c-1.483-6.758-3.984-13.376-7.531-18.908H268.25z"
  />
  <path
    fill="#9E4F29"
    d="M109.769 388.015h72.554a3.053 3.053 0 013.046 3.043v38.036a3.055 3.055 0 01-3.046 3.041l-72.554.003a3.055 3.055 0 01-3.041-3.044v-38.055a3.047 3.047 0 013.041-3.024zm271.585-.003a3.053 3.053 0 013.043 3.044v38.038a3.054 3.054 0 01-3.043 3.044c-32.032 0-64.064-.003-96.093 0a3.056 3.056 0 01-3.046-3.044v-38.055c0-1.674 1.37-3.024 3.046-3.024 32.032 0 64.061-.003 96.093-.003zm15.415 0h72.551a3.053 3.053 0 013.043 3.044v38.038a3.054 3.054 0 01-3.043 3.044h-72.551a3.054 3.054 0 01-3.043-3.044l-.002-38.055c0-1.674 1.372-3.027 3.045-3.027zm51.742-53.504h24.614v44.124h-24.614a3.055 3.055 0 01-3.043-3.045v-38.036a3.053 3.053 0 013.043-3.043zm-87.717 0h72.551a3.053 3.053 0 013.044 3.043v38.036a3.053 3.053 0 01-3.044 3.043l-72.551.002a3.055 3.055 0 01-3.043-3.045v-38.036c.019-1.673 1.37-3.043 3.043-3.043zm-15.306 0a3.053 3.053 0 013.043 3.043v38.036a3.053 3.053 0 01-3.043 3.043c-32.003.002-64.008 0-96.01 0a3.05 3.05 0 01-3.041-3.041l-.003-38.038a3.056 3.056 0 013.044-3.043h96.01zm35.866-53.488a3.053 3.053 0 013.043 3.043v38.036a3.055 3.055 0 01-3.043 3.045c-32.032 0-64.061 0-96.093.003a3.056 3.056 0 01-3.046-3.044v-38.04a3.051 3.051 0 013.046-3.043h96.093zm15.415 0h72.551a3.053 3.053 0 013.043 3.043v38.036a3.055 3.055 0 01-3.043 3.045h-72.551a3.053 3.053 0 01-3.043-3.043l-.002-38.038a3.055 3.055 0 013.045-3.043zM197.738 388.015h72.549a3.053 3.053 0 013.046 3.043v38.036a3.055 3.055 0 01-3.046 3.041l-72.549.003a3.057 3.057 0 01-3.045-3.044v-38.055c0-1.674 1.367-3.024 3.045-3.024zm-35.974-53.507h72.551a3.053 3.053 0 013.043 3.043v38.038a3.05 3.05 0 01-3.043 3.041h-72.551a3.053 3.053 0 01-3.044-3.041v-38.038c.02-1.671 1.373-3.043 3.044-3.043zm-52.365 0h37.058a3.053 3.053 0 013.044 3.043v38.038a3.05 3.05 0 01-3.044 3.041h-37.058a3.053 3.053 0 01-3.044-3.041v-38.038a3.056 3.056 0 013.044-3.043zm.37-53.488h72.554a3.053 3.053 0 013.046 3.043v38.04a3.053 3.053 0 01-3.046 3.039l-72.554.005a3.055 3.055 0 01-3.041-3.044v-38.04c.017-1.676 1.371-3.043 3.041-3.043zm87.969 0h72.549a3.053 3.053 0 013.046 3.043v38.04a3.053 3.053 0 01-3.046 3.039l-72.549.005a3.057 3.057 0 01-3.045-3.044v-38.04a3.05 3.05 0 013.045-3.043z"
  />
  <path
    fill="#E17F3A"
    d="M91.776 206.461H490.91c6.307 0 11.465 5.168 11.465 11.465v43.201c0 6.298-5.168 11.466-11.465 11.466H91.776c-6.298 0-11.465-5.158-11.465-11.466v-43.201c0-6.307 5.158-11.465 11.465-11.465zM126.681 9.625h329.323c10.719 0 19.488 8.771 19.488 19.487v34.003c0 10.719-8.769 19.49-19.488 19.49H126.681c-10.718 0-19.487-8.771-19.487-19.49V29.112c0-10.716 8.769-19.487 19.487-19.487z"
  />
</svg>
